<?xml version="1.0" encoding="utf-8"?>
<!-- Generator: Adobe Illustrator 25.2.1, SVG Export Plug-In . SVG Version: 6.00 Build 0)  -->
<svg version="1.1" id="Layer_1" xmlns="http://www.w3.org/2000/svg" xmlns:xlink="http://www.w3.org/1999/xlink" x="0px" y="0px"
	 viewBox="0 0 292.4 89" style="enable-background:new 0 0 292.4 89;" xml:space="preserve">
<style type="text/css">
	.st0{fill:#00AFAA;}
</style>
<g>
	<path class="st0" d="M56.1,28c0,1.8-1.4,3.2-3.2,3.2s-3.2-1.4-3.2-3.2s1.4-3.2,3.2-3.2C54.7,24.8,56.1,26.2,56.1,28"/>
	<path class="st0" d="M69.5,80.8c-0.8,0-1.6-0.4-2.1-1c-0.8-1.1-0.6-2.7,0.5-3.6C78,68.8,84,57,84,44.5C84.1,22.9,66.4,5.2,44.6,5.2
		c-1.9,0-3.8,0.1-5.7,0.4v55.6c0,1.4-1.1,2.5-2.6,2.5c-1.4,0-2.6-1.1-2.6-2.5V3.4c0-1.2,0.9-2.3,2.1-2.5C38.7,0.3,41.6,0,44.6,0
		c24.6,0,44.6,19.9,44.6,44.4c0,14.1-6.8,27.5-18.2,35.8C70.5,80.7,70,80.8,69.5,80.8"/>
	<path class="st0" d="M44.6,89C20,89,0,69,0,44.6C0,30.5,6.8,17.1,18.2,8.8c1.2-0.9,2.8-0.6,3.6,0.5s0.6,2.7-0.5,3.6
		C11.1,20.2,5.1,32.1,5.1,44.6c0,21.7,17.7,39.3,39.5,39.3c1.9,0,3.8-0.1,5.7-0.4V47c0-1.4,1.1-2.5,2.6-2.5c1.4,0,2.6,1.1,2.6,2.5
		v38.6c0,1.2-0.9,2.3-2.1,2.5C50.5,88.7,47.6,89,44.6,89"/>
</g>
<g>
	<path class="st0" d="M106.3,49.1h4.4c0.3,2.5,1.3,4.6,5.5,4.6c2.7,0,4.7-1.5,4.7-3.8s-1.1-3.1-5.2-3.8c-5.9-0.8-8.8-2.6-8.8-7.2
		c0-4,3.5-7.1,8.6-7.1c5.3,0,8.5,2.4,9,7.2h-4.2c-0.5-2.6-1.9-3.7-4.8-3.7c-2.8,0-4.3,1.3-4.3,3.2c0,2,0.8,3,5.1,3.6
		c5.8,0.8,8.9,2.5,8.9,7.4c0,4.3-3.6,7.6-9.1,7.6C109.5,57.1,106.7,53.8,106.3,49.1z"/>
	<polygon class="st0" points="134.1,32.1 140.3,32.1 146.8,48.9 153.2,32.1 159.3,32.1 159.3,56.8 154.7,56.8 154.7,38.1 
		147.3,56.8 145.8,56.8 138.2,38.1 138.2,56.8 134.1,56.8 	"/>
	<polygon class="st0" points="229.1,35.8 222.2,35.8 222.2,32.1 240.7,32.1 240.7,35.8 233.8,35.8 233.8,56.8 229.1,56.8 	"/>
	<rect x="241.6" y="43.8" class="st0" width="9.3" height="3.6"/>
	<polygon class="st0" points="189.8,56.8 181.6,32.1 175.5,32.1 167.2,56.8 171.6,56.8 178.3,35.8 181.7,46.5 178.7,46.5 
		177.6,50.1 182.8,50.1 185,56.8 	"/>
	<rect x="257.2" y="32.1" class="st0" width="4.7" height="24.7"/>
	<path class="st0" d="M279.4,32.1h-7.5v24.7h4.6v-3.6V35.8h2.7c5.8,0,8.3,3.2,8.3,8.5v0.3c0,4.6-1.9,7.6-5.8,8.4v3.8
		c7.2-0.8,10.7-5.6,10.7-12.2v-0.3C292.3,37,288.1,32.1,279.4,32.1"/>
	<path class="st0" d="M209.8,46.1c3.1-0.8,5.5-2.8,5.5-6.6v-0.2c0-5-3.8-7.3-9.3-7.3h-8.3v24.7h4.6V35.6h3.7c3,0,4.7,1,4.7,3.8v0.1
		c0,2.6-1.6,3.9-4.7,3.9h-0.8v3.3l6.5,10h5L209.8,46.1z"/>
</g>
</svg>
