<?xml version="1.0" encoding="utf-8"?>
<!-- Generator: Adobe Illustrator 25.2.1, SVG Export Plug-In . SVG Version: 6.00 Build 0)  -->
<svg version="1.1" id="Layer_1" xmlns="http://www.w3.org/2000/svg" xmlns:xlink="http://www.w3.org/1999/xlink" x="0px" y="0px"
	 viewBox="0 0 512 512" enable-background="new 0 0 512 512" xml:space="preserve">
<g>
	<g>
		<path fill="#FFFFFF" d="M451.3,436.8H86c-23.7,0-43-19.3-43-43s19.3-43,43-43h43c11.9,0,21.5-9.6,21.5-21.5s-9.6-21.5-21.5-21.5
			H86c-47.4,0-86,38.6-86,86s38.6,86,86,86h365.3c11.9,0,21.5-9.6,21.5-21.5S463.2,436.8,451.3,436.8z"/>
	</g>
</g>
<g>
	<g>
		<path fill="#FFFFFF" d="M488,56.3c-32.1-32-84.2-32.1-116.4,0l-32.9,32.9c-0.4,0.3-0.9,0.5-1.3,0.9s-0.5,0.9-0.9,1.3L226.3,201.6
			c-21.2,21.3-32.9,49.6-32.9,79.6v48.1c0,11.9,9.6,21.5,21.5,21.5H263c30.1,0,58.3-11.7,79.7-32.9L488,172.6
			C520,140.5,520,88.3,488,56.3z M312.3,287.5c-13.2,13.1-30.7,20.4-49.3,20.4h-26.6v-26.6c0-18.6,7.2-36.1,20.4-49.3l96.1-96.1
			l55.6,55.6L312.3,287.5z M457.6,142.2L438.8,161l-55.6-55.6L402,86.7c15.3-15.3,40.3-15.3,55.6,0
			C472.9,102,472.9,126.9,457.6,142.2z"/>
	</g>
</g>
</svg>
